<svg xmlns="http://www.w3.org/2000/svg" xmlns:xlink="http://www.w3.org/1999/xlink" viewBox="254 251 300.109 233.377">
  <defs>
    <style>
      .cls-1 {
        fill: #50d2c2;
        stroke: #95989a;
      }

      .cls-1, .cls-3 {
        clip-rule: evenodd;
      }

      .cls-2, .cls-3 {
        fill: none;
      }

      .cls-4 {
        clip-path: url(#clip-path);
      }

      .cls-5 {
        clip-path: url(#clip-path-2);
      }

      .cls-6 {
        fill: #50d1c1;
      }

      .cls-7 {
        opacity: 0;
      }

      .cls-8 {
        fill: url(#linear-gradient);
      }

      .cls-9 {
        fill: url(#linear-gradient-2);
      }

      .cls-10 {
        clip-path: url(#clip-path-3);
      }

      .cls-11 {
        filter: url(#Path_5);
      }
    </style>
    <filter id="Path_5" x="244.5" y="333.254" width="161.931" height="161.934" filterUnits="userSpaceOnUse">
      <feOffset dy="3" input="SourceAlpha"/>
      <feGaussianBlur stdDeviation="3" result="blur"/>
      <feFlood flood-opacity="0.161"/>
      <feComposite operator="in" in2="blur"/>
      <feComposite in="SourceGraphic"/>
    </filter>
    <clipPath id="clip-path">
      <g class="cls-11" transform="matrix(1, 0, 0, 1, 0, 0)">
        <path id="Path_5-2" data-name="Path 5" class="cls-1" d="M41.709-143.757a4,4,0,0,0-5.659,0L1.674-109.376a4,4,0,0,0,0,5.659L102.222-3.165a4,4,0,0,0,5.658,0l34.377-34.377a4,4,0,0,0,0-5.659Z" transform="translate(0 233)"/>
      </g>
    </clipPath>
    <clipPath id="clip-path-2">
      <path id="Path_4" data-name="Path 4" class="cls-2" d="M-226,861H524V-473H-226Z" transform="translate(0 233)"/>
    </clipPath>
    <linearGradient id="linear-gradient" x1="-0.003" y1="0.371" x2="-0.003" y2="4.765" gradientUnits="objectBoundingBox">
      <stop offset="0"/>
      <stop offset="0" stop-color="#fff"/>
      <stop offset="0.1" stop-color="#e5e5e5"/>
      <stop offset="0.2" stop-color="#ccc"/>
      <stop offset="0.3" stop-color="#b2b2b2"/>
      <stop offset="0.4" stop-color="#999"/>
      <stop offset="0.5" stop-color="gray"/>
      <stop offset="0.6" stop-color="#666"/>
      <stop offset="0.7" stop-color="#4c4c4c"/>
      <stop offset="0.8" stop-color="#333"/>
      <stop offset="0.9" stop-color="#191919"/>
      <stop offset="1"/>
    </linearGradient>
    <linearGradient id="linear-gradient-2" x1="0.066" y1="0.458" x2="0.41" y2="0.911" gradientUnits="objectBoundingBox">
      <stop offset="0" stop-color="#fff" stop-opacity="0"/>
      <stop offset="0.1" stop-color="#e5e5e5" stop-opacity="0.102"/>
      <stop offset="0.2" stop-color="#ccc" stop-opacity="0.2"/>
      <stop offset="0.3" stop-color="#b2b2b2" stop-opacity="0.302"/>
      <stop offset="0.4" stop-color="#999" stop-opacity="0.4"/>
      <stop offset="0.5" stop-color="gray" stop-opacity="0.502"/>
      <stop offset="0.6" stop-color="#666" stop-opacity="0.6"/>
      <stop offset="0.7" stop-color="#4c4c4c" stop-opacity="0.702"/>
      <stop offset="0.8" stop-color="#333" stop-opacity="0.8"/>
      <stop offset="0.9" stop-color="#191919" stop-opacity="0.902"/>
      <stop offset="1"/>
    </linearGradient>
    <clipPath id="clip-path-3">
      <path id="Path_8" data-name="Path 8" class="cls-3" d="M299.438-192.473a4,4,0,0,0,0-5.659l-34.377-34.377a4,4,0,0,0-5.659,0L65.571-38.686,102.779-1.477a4,4,0,0,0,5.659,0Z" transform="translate(0 233)"/>
    </clipPath>
  </defs>
  <g id="Group_8" data-name="Group 8" transform="translate(253.5 251.681)">
    <g id="Group_5" data-name="Group 5" class="cls-4">
      <g id="Group_4" data-name="Group 4" class="cls-5">
        <path id="Path_1" data-name="Path 1" class="cls-6" d="M-4.5,3.006H148.431V-149.928H-4.5Z" transform="translate(0 233)"/>
        <g id="Group_2" data-name="Group 2" class="cls-7">
          <g id="Group_1" data-name="Group 1">
            <path id="Path_2" data-name="Path 2" class="cls-8" d="M.938-86.333h301v233H.938Z" transform="translate(-0.938 86.333)"/>
          </g>
        </g>
        <g id="Group_3" data-name="Group 3">
          <path id="Path_3" data-name="Path 3" class="cls-9" d="M.938-86.333h301v233H.938Z" transform="translate(-0.938 86.333)"/>
        </g>
      </g>
    </g>
    <g id="Group_7" data-name="Group 7" class="cls-10">
      <g id="Group_6" data-name="Group 6" class="cls-5">
        <path id="Path_6" data-name="Path 6" class="cls-6" d="M60.571,4.7H305.609V-238.681H60.571Z" transform="translate(0 233)"/>
      </g>
    </g>
  </g>
</svg>
