<?xml version="1.0" standalone="no"?>
<!DOCTYPE svg PUBLIC "-//W3C//DTD SVG 20010904//EN"
 "http://www.w3.org/TR/2001/REC-SVG-20010904/DTD/svg10.dtd">
<svg version="1.0" xmlns="http://www.w3.org/2000/svg"
 width="512.000000pt" height="512.000000pt" viewBox="0 0 512.000000 512.000000"
 preserveAspectRatio="xMidYMid meet">
<metadata>
Created by potrace 1.11, written by Peter Selinger 2001-2013
</metadata>
<g transform="translate(0.000000,512.000000) scale(0.100000,-0.100000)"
fill="#000000" stroke="none">
<path d="M1653 4462 c-12 -7 -63 -152 -63 -178 0 -8 -5 -14 -11 -14 -5 0 -8
-4 -5 -8 3 -4 0 -28 -5 -53 -25 -108 -33 -174 -33 -289 0 -91 9 -204 18 -218
2 -4 7 -25 11 -47 8 -46 9 -53 19 -80 5 -11 13 -33 19 -50 32 -88 139 -282
164 -298 7 -4 13 -12 13 -16 0 -4 19 -30 43 -56 49 -56 177 -186 177 -180 0 2
15 -9 32 -26 18 -16 36 -29 41 -29 4 0 5 -5 1 -12 -4 -6 -3 -8 3 -5 5 4 19 -3
31 -13 12 -11 25 -20 31 -20 5 0 11 -4 13 -8 3 -10 113 -83 141 -94 9 -4 17
-12 17 -18 0 -6 4 -9 8 -6 5 3 21 -4 38 -15 43 -29 357 -181 379 -183 6 -1 42
-13 80 -28 61 -24 159 -56 347 -114 26 -8 56 -14 67 -14 11 0 22 -4 26 -10 3
-5 12 -7 20 -3 8 3 15 0 15 -7 0 -6 4 -8 10 -5 5 3 38 -2 72 -11 35 -9 74 -18
88 -20 14 -2 36 -7 50 -10 13 -3 38 -7 55 -10 16 -2 37 -6 45 -7 13 -3 95 -18
125 -22 6 -1 20 -3 33 -3 31 -3 29 -37 -4 -87 -28 -42 -204 -225 -216 -225 -4
0 -17 -10 -30 -22 -13 -13 -45 -42 -73 -65 -80 -68 -42 -67 70 2 22 13 54 32
70 41 50 28 168 110 205 142 19 17 39 28 45 25 5 -4 7 -3 4 1 -3 3 20 34 52
67 97 101 141 221 79 216 -3 0 -16 6 -30 13 -14 8 -27 15 -30 15 -15 2 -86 29
-95 35 -5 4 -26 13 -46 19 -65 21 -263 112 -271 124 -4 7 -8 9 -8 4 0 -8 -138
60 -240 118 -36 21 -80 46 -98 56 -53 31 -87 53 -93 62 -3 5 -9 7 -12 5 -4 -1
-15 4 -25 13 -11 9 -23 18 -28 20 -18 7 -189 128 -211 148 -12 12 -25 21 -27
21 -5 0 -30 19 -60 45 -6 6 -27 23 -46 39 -19 16 -66 56 -104 90 -38 33 -77
68 -87 77 -10 9 -16 19 -12 23 3 3 1 6 -6 6 -29 0 -325 334 -314 354 3 6 3 8
-2 4 -9 -8 -72 71 -67 84 1 5 -2 8 -7 8 -8 0 -161 223 -161 236 0 4 -6 15 -14
23 -19 23 -97 171 -89 171 3 0 -1 8 -9 18 -9 9 -26 40 -38 67 -13 28 -36 79
-51 113 -16 35 -26 68 -23 73 6 11 3 11 -13 1z"/>
<path d="M1266 3638 c-3 -13 -6 -24 -6 -25 0 -2 -9 -23 -20 -47 -17 -40 -24
-69 -47 -191 -17 -91 -1 -269 32 -347 8 -20 11 -38 8 -42 -4 -3 -1 -6 5 -6 7
0 12 -5 12 -10 0 -6 11 -28 25 -50 14 -22 23 -40 20 -40 -23 0 190 -210 265
-261 36 -24 68 -48 72 -54 4 -5 8 -7 8 -3 0 4 24 -6 53 -23 59 -35 172 -89
187 -89 6 0 10 -5 10 -12 0 -6 3 -9 6 -5 3 3 29 -3 58 -15 57 -23 153 -57 176
-62 8 -2 41 -11 72 -21 32 -9 59 -16 60 -15 2 0 27 -7 57 -16 30 -9 63 -17 74
-19 10 -3 26 -6 35 -9 9 -3 33 -8 52 -11 19 -3 42 -8 50 -10 18 -5 62 -13 110
-21 19 -2 58 -9 85 -14 28 -6 67 -12 88 -15 20 -3 53 -7 72 -10 82 -12 180
-23 255 -30 25 -2 70 -6 100 -9 74 -8 185 -16 300 -21 100 -4 116 1 138 42 10
19 9 22 -5 21 -10 0 -33 3 -50 6 -18 3 -45 8 -60 11 -63 10 -276 55 -293 62
-8 3 -22 7 -30 8 -82 11 -449 126 -620 195 -191 76 -508 240 -537 278 -7 9
-13 12 -13 8 0 -14 -168 108 -277 202 -13 10 -19 23 -15 27 4 5 2 5 -4 2 -6
-3 -53 38 -105 91 -100 103 -176 192 -162 192 4 0 -3 7 -15 16 -12 8 -22 22
-22 30 0 8 -4 14 -8 14 -5 0 -15 12 -23 28 -8 15 -25 43 -37 62 -37 55 -82
147 -75 154 4 3 1 6 -5 6 -6 0 -16 16 -22 35 -13 40 -25 45 -34 13z"/>
<path d="M1115 2753 c-4 -10 -9 -70 -11 -133 -3 -103 0 -122 22 -185 14 -39
26 -75 27 -82 0 -7 4 -10 8 -8 3 3 12 -9 19 -25 7 -17 16 -30 21 -30 5 0 9 -5
9 -10 0 -15 75 -80 134 -117 28 -18 56 -36 61 -40 19 -15 220 -91 220 -84 0 1
13 -3 30 -9 30 -12 146 -38 200 -45 16 -2 48 -7 70 -11 198 -32 699 -37 1095
-9 115 8 217 16 240 20 14 2 59 7 100 10 125 10 141 12 166 26 36 19 29 29
-23 30 -27 1 -61 3 -78 5 -16 1 -59 5 -95 9 -36 3 -83 8 -105 10 -22 2 -71 6
-110 10 -157 13 -351 36 -443 51 -18 3 -56 7 -85 10 -28 3 -54 7 -57 9 -4 2
-29 7 -56 10 -27 4 -89 16 -139 26 -49 11 -102 21 -116 24 -53 8 -226 57 -324
92 -55 19 -108 37 -117 40 -10 3 -18 9 -18 12 0 4 -6 8 -13 8 -20 0 -97 36
-97 46 0 4 -4 6 -9 2 -5 -3 -17 2 -25 11 -9 8 -16 13 -16 9 0 -3 -13 3 -29 14
-15 11 -30 18 -33 15 -3 -2 -11 2 -18 11 -7 8 -17 15 -22 15 -5 0 -20 8 -33
18 -12 9 -33 24 -45 32 -74 49 -186 139 -257 208 -29 27 -39 28 -48 5z"/>
<path d="M1307 1465 c-26 -7 -59 -23 -73 -36 -26 -24 -59 -85 -71 -130 -10
-39 -10 -239 1 -239 5 0 7 -3 3 -6 -8 -8 13 -63 40 -105 66 -101 228 -83 276
31 33 80 44 237 22 334 -3 16 -7 33 -8 39 -5 25 -95 122 -104 113 -3 -3 -13
-1 -22 3 -9 5 -36 3 -64 -4z m68 -125 c17 -32 27 -106 25 -180 -1 -46 -7 -105
-10 -105 -1 0 -3 -9 -5 -19 -6 -30 -37 -56 -61 -50 -37 10 -52 69 -50 191 3
120 8 147 32 174 25 28 51 23 69 -11z"/>
<path d="M917 1455 c-38 -13 -60 -28 -88 -57 -9 -10 -19 -14 -23 -10 -4 4 -6
3 -5 -3 5 -16 -11 -55 -22 -55 -6 0 -8 -3 -6 -7 3 -5 0 -19 -6 -33 -17 -42
-16 -194 2 -247 21 -62 52 -113 68 -113 7 0 13 -4 13 -9 0 -27 138 -45 216
-27 l31 7 1 154 1 153 -64 4 c-91 4 -92 4 -91 -45 1 -35 5 -42 25 -47 22 -5
24 -11 25 -70 1 -62 0 -65 -24 -68 -30 -3 -72 37 -88 86 -16 48 -9 190 11 229
30 57 97 84 155 62 12 -5 22 -5 23 -1 1 12 8 45 13 68 4 13 1 26 -5 29 -21 13
-124 13 -162 0z"/>
<path d="M1592 1461 c-4 -4 -7 -133 -7 -289 l0 -282 28 -1 c35 0 192 0 215 0
14 1 19 10 21 46 1 26 -3 46 -9 46 -5 1 -38 2 -72 3 l-63 1 -1 233 c-1 128 -4
236 -8 240 -9 8 -93 10 -104 3z"/>
<path d="M1945 1460 l-30 -5 0 -279 c0 -159 4 -280 9 -284 15 -9 128 -9 170 0
21 5 51 17 66 28 15 11 31 16 35 12 5 -4 5 -2 1 5 -3 6 -1 15 7 20 15 10 45
76 53 118 18 93 9 212 -22 281 -13 29 -75 93 -92 95 -4 0 -16 3 -27 5 -34 8
-138 10 -170 4z m166 -117 c26 -30 37 -87 35 -175 -3 -98 -26 -162 -65 -183
-15 -7 -32 -10 -38 -7 -8 5 -11 68 -11 197 0 168 2 191 16 196 20 8 41 -2 63
-28z"/>
<path d="M2332 1460 c-9 -7 -8 -557 1 -566 4 -4 23 -7 42 -6 19 0 76 1 125 1
l90 1 0 50 0 50 -73 0 -74 0 -1 75 -1 75 42 1 c93 2 87 -2 87 57 l0 39 -63 -2
-63 -1 -1 66 -1 65 66 0 67 0 2 50 2 50 -120 0 c-67 0 -124 -2 -127 -5z"/>
<path d="M2669 1451 c0 -9 -1 -140 -2 -291 l-2 -275 53 3 54 4 -4 179 c-2 98
-3 179 -2 179 1 0 10 -24 19 -52 16 -50 35 -97 57 -143 5 -12 10 -27 12 -35 2
-8 13 -37 24 -63 12 -27 22 -53 22 -58 0 -5 26 -9 58 -9 l57 0 -2 281 c-1 199
-5 284 -13 289 -6 4 -28 6 -48 5 l-37 -1 -1 -155 c0 -85 3 -166 7 -181 11 -41
-5 -34 -21 10 -8 20 -15 39 -15 42 -1 3 -9 22 -18 44 -9 21 -15 42 -12 46 3 4
-2 13 -10 20 -8 7 -15 20 -15 30 0 9 -3 20 -7 24 -4 4 -17 33 -29 64 l-21 56
-51 1 c-41 1 -52 -2 -53 -14z"/>
<path d="M3159 1419 c-27 -28 -50 -57 -50 -65 -2 -16 -5 -33 -9 -36 -7 -10
-12 -55 -14 -133 -3 -88 14 -186 36 -212 6 -7 7 -13 4 -13 -13 0 69 -70 84
-71 71 -7 99 -4 133 14 20 11 37 25 37 29 0 5 6 6 13 2 6 -4 9 -3 4 1 -4 5 -1
18 6 29 41 63 58 248 32 347 -7 27 -11 49 -9 49 3 0 -4 10 -16 22 -11 12 -20
27 -20 32 -1 26 -55 50 -118 52 l-64 3 -49 -50z m135 -61 c25 -25 35 -80 34
-185 0 -69 -5 -117 -14 -134 -7 -15 -11 -29 -7 -32 3 -4 -7 -11 -22 -17 -56
-21 -82 36 -84 185 -1 61 0 77 11 120 16 65 52 92 82 63z"/>
<path d="M3485 1425 c2 -22 7 -51 10 -65 2 -13 7 -40 10 -60 3 -20 8 -47 11
-60 2 -14 7 -38 9 -55 3 -16 13 -77 24 -135 11 -58 17 -108 15 -112 -2 -4 0
-9 5 -13 6 -3 8 -12 4 -20 -4 -12 6 -15 56 -15 l60 0 10 38 c5 20 13 57 17 82
4 25 8 47 9 50 1 3 5 28 10 55 5 28 10 53 11 58 1 4 2 18 3 32 1 31 17 33 17
3 1 -33 11 -105 25 -168 6 -30 12 -70 13 -87 0 -18 4 -33 8 -33 4 0 5 -8 3
-17 -2 -16 5 -18 56 -18 l60 0 9 35 c5 19 11 51 14 70 3 19 8 46 10 60 3 14
17 93 31 175 14 83 30 166 34 186 5 21 6 41 2 46 -9 12 -107 11 -109 -2 0 -5
-3 -30 -6 -55 -4 -44 -12 -105 -23 -185 -3 -22 -7 -64 -8 -94 -4 -52 -14 -83
-16 -45 0 10 -2 30 -4 44 -2 14 -6 45 -10 70 -3 25 -7 54 -9 65 -2 11 -7 38
-11 60 -10 60 -16 98 -20 115 -2 8 -4 20 -4 26 -1 17 -94 11 -97 -6 -3 -17
-12 -72 -20 -115 -4 -16 -8 -41 -9 -55 -12 -87 -43 -230 -45 -205 -3 61 -21
219 -35 325 -2 14 -4 34 -4 45 -1 18 -8 20 -61 20 l-60 0 5 -40z"/>
<path d="M4092 1460 c-4 -3 -7 -131 -7 -285 l0 -280 105 -5 c58 -3 118 -3 133
-1 27 3 28 6 25 50 l-3 46 -70 0 -70 0 -2 230 c0 127 -2 235 -2 240 -1 10 -96
15 -109 5z"/>
<path d="M2927 759 c-34 -18 -57 -51 -57 -82 0 -11 127 -64 134 -56 2 2 10 36
18 76 l15 71 -30 6 c-39 8 -36 8 -80 -15z"/>
<path d="M3094 721 c2 -31 6 -58 7 -61 1 -3 3 -11 3 -19 1 -8 10 -17 22 -21
20 -8 23 0 27 67 0 7 4 10 10 6 5 -3 7 -14 4 -24 -3 -10 -1 -21 4 -24 4 -3 6
-12 3 -20 -4 -10 0 -12 15 -8 12 3 21 13 21 22 0 10 3 21 7 24 3 4 8 22 10 39
1 18 5 43 8 55 4 16 1 21 -13 19 -10 -2 -18 -13 -20 -27 -1 -13 -3 -30 -4 -36
-2 -20 -12 -5 -16 25 -7 58 -42 50 -42 -10 0 -15 -4 -29 -9 -32 -4 -3 -8 2 -8
12 0 54 -4 69 -18 69 -13 0 -15 -11 -11 -56z"/>
<path d="M3248 727 c-4 -75 4 -119 20 -108 15 9 22 128 8 149 -15 24 -24 11
-28 -41z"/>
<path d="M3316 769 c2 -4 0 -10 -6 -14 -5 -3 -10 -13 -10 -22 0 -20 35 -64 45
-55 4 4 5 -2 3 -13 -2 -14 -10 -19 -26 -17 -29 4 -30 -24 -1 -31 29 -8 47 1
56 26 11 34 10 41 -11 60 -27 24 -28 44 -4 50 29 8 12 28 -22 25 -16 -1 -27
-5 -24 -9z"/>
<path d="M3399 775 c-6 0 -2 -155 3 -156 43 -6 63 -1 66 15 3 12 -2 16 -15 14
-13 -2 -19 4 -21 21 -3 18 0 22 11 18 9 -3 18 1 21 9 5 13 -5 19 -26 15 -5 0
-8 8 -8 19 0 13 7 20 18 20 10 0 19 6 19 13 0 11 -29 16 -68 12z"/>
<path d="M3549 773 c-20 -5 -42 -50 -28 -58 5 -4 6 -11 3 -17 -4 -6 -2 -8 3
-5 6 4 19 -3 29 -14 14 -16 16 -22 5 -28 -7 -5 -22 -6 -32 -4 -15 4 -18 1 -13
-11 3 -9 11 -16 18 -17 6 0 18 -2 27 -4 10 -2 22 8 30 21 14 27 29 32 29 9 0
-18 30 -34 50 -27 24 9 36 32 39 76 2 47 -14 74 -46 80 -33 7 -52 -23 -55 -81
-1 -23 -18 -22 -18 0 0 7 -9 18 -20 25 -12 7 -18 17 -15 22 4 6 10 8 15 5 4
-3 13 1 19 9 9 11 8 15 -5 20 -8 3 -16 5 -17 5 -1 -1 -9 -3 -18 -6z m122 -40
c0 -10 2 -27 4 -37 4 -21 -13 -61 -22 -52 -8 8 -13 68 -7 89 3 9 10 17 15 17
5 0 9 -8 10 -17z"/>
<path d="M3727 773 c-3 -7 -2 -139 2 -153 3 -13 55 -2 67 15 8 10 17 15 21 12
3 -4 2 -7 -3 -7 -5 -1 2 -7 15 -14 47 -26 71 -3 73 69 1 66 -2 81 -20 82 -14
1 -16 -6 -13 -43 1 -24 0 -57 -4 -72 -10 -40 -23 -8 -21 51 1 29 -4 53 -12 59
-18 16 -21 9 -23 -55 -2 -45 -6 -60 -21 -68 -17 -9 -18 -5 -18 61 0 63 -2 70
-19 70 -11 0 -22 -3 -24 -7z"/>
<path d="M3915 761 c1 -9 8 -15 14 -13 7 1 11 -20 11 -64 0 -57 2 -65 17 -62
14 3 18 14 18 63 0 45 3 59 13 57 8 -1 12 5 10 15 -4 24 -87 29 -83 4z"/>
<path d="M4016 695 c3 -97 1 -92 17 -76 7 7 12 41 12 86 1 62 -2 73 -16 72
-13 -1 -15 -13 -13 -82z"/>
<path d="M4085 760 c-27 -29 -24 -109 5 -132 39 -32 74 -1 76 67 2 72 -42 108
-81 65z m47 -66 c-1 -34 -20 -72 -23 -48 -5 29 -6 90 -1 97 10 18 25 -14 24
-49z"/>
<path d="M4182 694 c-1 -69 1 -82 13 -77 10 3 15 20 16 47 l1 41 14 -41 c8
-23 23 -44 32 -46 16 -5 18 4 17 75 0 55 -4 82 -13 85 -12 4 -16 -19 -12 -68
2 -25 -9 -24 -15 2 -10 41 -19 57 -35 61 -15 4 -17 -4 -18 -79z"/>
<path d="M4305 758 c-22 -32 -19 -44 16 -70 27 -20 28 -24 14 -35 -10 -6 -23
-9 -29 -7 -7 3 -13 -2 -13 -11 0 -22 63 -20 75 3 14 25 6 55 -17 71 -27 17
-27 37 -1 44 28 7 25 22 -5 25 -15 1 -30 -6 -40 -20z"/>
</g>
</svg>
